# xmcd
#
# Track frame offsets:
#	150
#	17310
#	30592
#	48535
#	66972
#	83597
#	97532
#	117280
#	131447
#	146147
#	164592
#	182052
#
# Disc length: 2729 seconds
#
# Revision: 1
# Processed by: cddbd v1.5.2PL0 Copyright (c) Steve Scherf et al.
# Submitted via: audiograbber 1.83.01
#
DISCID=940aa70c
DTITLE=Travis - The invisible band
DYEAR=2001
DGENRE=Rock
TTITLE0=Sing
TTITLE1=Dear diary
TTITLE2=Side
TTITLE3=Pipe dreams
TTITLE4=Flowers in the window
TTITLE5=The cage
TTITLE6=Safe
TTITLE7=Follow the light
TTITLE8=Last train
TTITLE9=Afterglow
TTITLE10=Indefinitely
TTITLE11=The Humpty Dumpty love song
EXTD=
EXTT0=
EXTT1=
EXTT2=
EXTT3=
EXTT4=
EXTT5=
EXTT6=
EXTT7=
EXTT8=
EXTT9=
EXTT10=
EXTT11=
PLAYORDER=
